HIERARCHY
ROOT Hips
{
  OFFSET -4.35178 90.3298 111.633
  CHANNELS 6 Xposition Yposition Zposition Zrotation Xrotation Yrotation
  JOINT LeftUpLeg
  {
    OFFSET 0.103456 1.85784 10.5485
    CHANNELS 6 Xposition Yposition Zposition Zrotation Xrotation Yrotation
    JOINT LeftLeg
    {
      OFFSET 43.5 -4.2e-05 0
      CHANNELS 6 Xposition Yposition Zposition Zrotation Xrotation Yrotation
      JOINT LeftFoot
      {
        OFFSET 42.3722 1.9e-05 0
        CHANNELS 6 Xposition Yposition Zposition Zrotation Xrotation Yrotation
        JOINT LeftToe
        {
          OFFSET 17.3 0 0
          CHANNELS 6 Xposition Yposition Zposition Zrotation Xrotation Yrotation
          End Site
          {
            OFFSET 0 0 0
          }
        }
      }
    }
  }
  JOINT RightUpLeg
  {
    OFFSET 0.103456 1.85782 -10.5485
    CHANNELS 6 Xposition Yposition Zposition Zrotation Xrotation Yrotation
    JOINT RightLeg
    {
      OFFSET 43.5 -2.7e-05 0
      CHANNELS 6 Xposition Yposition Zposition Zrotation Xrotation Yrotation
      JOINT RightFoot
      {
        OFFSET 42.3723 0 0
        CHANNELS 6 Xposition Yposition Zposition Zrotation Xrotation Yrotation
        JOINT RightToe
        {
          OFFSET 17.3 0 1.7e-05
          CHANNELS 6 Xposition Yposition Zposition Zrotation Xrotation Yrotation
          End Site
          {
            OFFSET 0 0 0
          }
        }
      }
    }
  }
  JOINT Spine
  {
    OFFSET 6.90197 -2.60373 0
    CHANNELS 6 Xposition Yposition Zposition Zrotation Xrotation Yrotation
    JOINT Spine1
    {
      OFFSET 12.5881 0 0
      CHANNELS 6 Xposition Yposition Zposition Zrotation Xrotation Yrotation
      JOINT Spine2
      {
        OFFSET 12.3432 -1.8e-05 0
        CHANNELS 6 Xposition Yposition Zposition Zrotation Xrotation Yrotation
        JOINT Neck
        {
          OFFSET 25.8329 2.3e-05 0
          CHANNELS 6 Xposition Yposition Zposition Zrotation Xrotation Yrotation
          JOINT Head
          {
            OFFSET 11.7666 0 0
            CHANNELS 6 Xposition Yposition Zposition Zrotation Xrotation Yrotation
            End Site
            {
              OFFSET 0 0 0
            }
          }
        }
        JOINT LeftShoulder
        {
          OFFSET 19.7459 -1.48035 6.0001
          CHANNELS 6 Xposition Yposition Zposition Zrotation Xrotation Yrotation
          JOINT LeftArm
          {
            OFFSET 11.2841 1.8e-05 -2e-05
            CHANNELS 6 Xposition Yposition Zposition Zrotation Xrotation Yrotation
            JOINT LeftForeArm
            {
              OFFSET 33 -1.3e-05 1.9e-05
              CHANNELS 6 Xposition Yposition Zposition Zrotation Xrotation Yrotation
              JOINT LeftHand
              {
                OFFSET 25.2 3.2e-05 1.1e-05
                CHANNELS 6 Xposition Yposition Zposition Zrotation Xrotation Yrotation
                End Site
                {
                  OFFSET 0 0 0
                }
              }
            }
          }
        }
        JOINT RightShoulder
        {
          OFFSET 19.7461 -1.48036 -6.00008
          CHANNELS 6 Xposition Yposition Zposition Zrotation Xrotation Yrotation
          JOINT RightArm
          {
            OFFSET 11.2841 0 0
            CHANNELS 6 Xposition Yposition Zposition Zrotation Xrotation Yrotation
            JOINT RightForeArm
            {
              OFFSET 33.0001 1.6e-05 0
              CHANNELS 6 Xposition Yposition Zposition Zrotation Xrotation Yrotation
              JOINT RightHand
              {
                OFFSET 25.1998 0.000123 0.000432
                CHANNELS 6 Xposition Yposition Zposition Zrotation Xrotation Yrotation
                End Site
                {
                  OFFSET 0 0 0
                }
              }
            }
          }
        }
      }
    }
  }
}
MOTION
Frames:	7
Frame Time:	0.0333333
78.2629 89.5701 -143.544 77.2594 53.5333 12.8071 0.103456 1.85784 10.5485 13.893 12.6293 177.051 43.5 -4.2e-05 1e-05 -7.47658 -12.8608 -3.70966 42.3722 1.9e-05 0 80.3258 -5.29801 7.08872 17.3 7.10543e-15 3e-06 21.4546 -1e-06 0.003093 0.103456 1.85782 -10.5485 -1.25387 -9.41596 171.071 43.5 -2.7e-05 4e-06 -23.7178 10.8481 2.27891 42.3723 0 1e-05 83.7477 10.7001 -8.02813 17.3 -6e-06 1.7e-05 21.4546 -1.9e-05 -0.003116 6.90197 -2.60373 -3e-06 7.48337 0.0726058 0.00953484 12.5881 1e-05 8e-06 4.95041 0.209936 0.0326392 12.3432 -1.8e-05 -5e-06 4.6285 0.283721 0.0308592 25.8329 2.3e-05 7e-06 5.27219 -7.10608 -5.88169 11.7666 -8e-06 -6e-06 -5.45853 -8.55339 4.0034 19.7459 -1.48035 6.0001 -174.689 6.19768 -75.2504 11.2841 1.8e-05 -2e-05 -10.6613 -5.20005 59.8774 33 -1.3e-05 1.9e-05 -35.4794 2.24761 -8.02106 25.2 3.2e-05 1.1e-05 -2.74574 34.7601 -4.60619 19.7461 -1.48036 -6.00008 -175.952 -1.41013 71.9494 11.2841 0 -1e-06 -30.7893 -10.4009 -45.7884 33.0001 1.6e-05 -1e-06 -29.7765 -0.182248 9.89999 25.1998 0.000123 0.000432 -3.21379 -11.704 3.78773 
78.0686 89.5666 -143.562 77.1036 53.4675 12.8821 0.103456 1.85784 10.5485 14.057 12.5689 177.219 43.5 -4.2e-05 1e-05 -7.46059 -12.8546 -3.74091 42.3722 1.9e-05 0 80.3535 -5.40497 7.18123 17.3 7.10543e-15 3e-06 21.4546 -1e-06 0.003093 0.103456 1.85782 -10.5485 -1.04428 -9.49968 171.249 43.5 -2.7e-05 4e-06 -23.6329 10.8299 2.24809 42.3723 0 1e-05 83.7501 10.6509 -7.94741 17.3 -6e-06 1.7e-05 21.4546 -1.9e-05 -0.003116 6.90197 -2.60373 -3e-06 7.46549 0.0599023 0.0259894 12.5881 1e-05 8e-06 4.91483 0.186518 0.0672702 12.3432 -1.8e-05 -5e-06 4.59314 0.261991 0.066814 25.8329 2.3e-05 7e-06 5.22677 -7.21229 -5.83049 11.7666 -8e-06 -6e-06 -5.53578 -8.6601 3.91266 19.7459 -1.48035 6.0001 -174.689 6.17344 -75.2891 11.2841 1.8e-05 -2e-05 -10.6689 -5.28271 59.8588 33 -1.3e-05 1.9e-05 -35.5963 2.14595 -7.96959 25.2 3.2e-05 1.1e-05 -2.70464 34.7314 -4.61241 19.7461 -1.48036 -6.00008 -175.902 -1.49833 71.9502 11.2841 0 -1e-06 -30.7893 -10.3444 -45.7153 33.0001 1.6e-05 -1e-06 -29.8174 -0.227352 9.93429 25.1998 0.000123 0.000432 -3.35735 -11.6813 3.78742 
77.881 89.5625 -143.6 76.9558 53.3939 12.9606 0.103456 1.85784 10.5485 14.182 12.5299 177.379 43.5 -4.2e-05 1e-05 -7.50137 -12.8341 -3.78388 42.3722 1.9e-05 1.42109e-14 80.3081 -5.51056 7.28636 17.3 0 3e-06 21.4546 -1e-06 0.003093 0.103456 1.85782 -10.5485 -0.829571 -9.60216 171.378 43.5 -2.7e-05 4e-06 -23.5192 10.7958 2.23828 42.3723 0 1e-05 83.7661 10.6323 -7.81779 17.3 -6e-06 1.7e-05 21.4546 -1.9e-05 -0.003116 6.90197 -2.60373 -3e-06 7.44017 0.0578942 0.0337148 12.5881 1e-05 8e-06 4.8642 0.183042 0.0829529 12.3432 -1.8e-05 -5e-06 4.5425 0.258708 0.0825938 25.8329 2.3e-05 7e-06 5.23128 -7.20817 -5.82602 11.7666 -8e-06 -6e-06 -5.53797 -8.64507 3.92107 19.7459 -1.48035 6.0001 -174.655 6.21911 -75.317 11.2841 1.8e-05 -2e-05 -10.6787 -5.35104 59.8388 33 -1.3e-05 1.9e-05 -35.7365 2.16545 -7.96752 25.2 3.2e-05 1.1e-05 -2.76 34.7028 -4.56494 19.7461 -1.48036 -6.00008 -175.881 -1.51982 71.9887 11.2841 0 -1e-06 -30.8721 -10.306 -45.7361 33.0001 1.6e-05 -1e-06 -29.8836 -0.286064 9.94288 25.1998 0.000123 0.000432 -3.39559 -11.6753 3.77212 
77.692 89.5722 -143.641 76.8762 53.3491 12.9845 0.103456 1.85784 10.5485 14.5357 12.4757 177.536 43.5 -4.2e-05 1e-05 -7.26997 -12.8185 -3.87648 42.3722 1.9e-05 1.42109e-14 80.2894 -5.57061 7.38341 17.3 7.10543e-15 3e-06 21.4546 -1e-06 0.003093 0.103456 1.85782 -10.5485 -0.628182 -9.71967 171.521 43.5 -2.7e-05 4e-06 -23.3418 10.773 2.22683 42.3723 -2.84217e-14 1e-05 83.736 10.5804 -7.71105 17.3 -6e-06 1.7e-05 21.4546 -1.9e-05 -0.003116 6.90197 -2.60373 -3e-06 7.39704 0.0458381 0.0462232 12.5881 1e-05 8e-06 4.77815 0.159747 0.109548 12.3432 -1.8e-05 -5e-06 4.4567 0.235809 0.110449 25.8329 2.3e-05 7e-06 5.22669 -7.30268 -5.78584 11.7666 -8e-06 -6e-06 -5.58432 -8.7319 3.86025 19.7459 -1.48035 6.0001 -174.607 6.21264 -75.3387 11.2841 1.8e-05 -2e-05 -10.7216 -5.38085 59.8831 33 -1.3e-05 1.9e-05 -35.8466 2.18114 -7.96191 25.2 3.2e-05 1.1e-05 -2.89811 34.6557 -4.48632 19.7461 -1.48036 -6.00008 -175.818 -1.57823 72.0089 11.2841 0 -1e-06 -30.8793 -10.2213 -45.7716 33.0001 1.6e-05 -1e-06 -29.9398 -0.19149 9.95276 25.1998 0.000123 0.000432 -3.36708 -11.6723 3.8068 
77.503 89.5882 -143.685 76.8017 53.3118 12.994 0.103456 1.85784 10.5485 14.1489 12.4477 177.73 43.5 -4.2e-05 1e-05 -7.72654 -12.8058 -3.84831 42.3722 1.9e-05 -7.10543e-15 80.178 -5.75624 7.47006 17.3 7.10543e-15 3e-06 21.4546 -1e-06 0.003093 0.103456 1.85782 -10.5485 -0.371232 -9.84083 171.693 43.5 -2.7e-05 4e-06 -23.0309 10.7386 2.20998 42.3723 0 1e-05 83.6549 10.5845 -7.59172 17.3 -6e-06 1.7e-05 21.4546 -1.9e-05 -0.003116 6.90197 -2.60373 -3e-06 7.36182 0.0430583 0.0614029 12.5881 1e-05 8e-06 4.70762 0.155539 0.140174 12.3432 -1.8e-05 -5e-06 4.38614 0.232431 0.141159 25.8329 2.3e-05 7e-06 5.23489 -7.3004 -5.78295 11.7666 -8e-06 -6e-06 -5.63741 -8.69575 3.85106 19.7459 -1.48035 6.0001 -174.545 6.26775 -75.3806 11.2841 1.8e-05 -2e-05 -10.6801 -5.47439 59.9534 33 -1.3e-05 1.9e-05 -35.9399 2.09444 -7.94785 25.2 3.2e-05 1.1e-05 -2.76967 34.6208 -4.50743 19.7461 -1.48036 -6.00008 -175.791 -1.62353 72.0558 11.2841 2.84217e-14 -1e-06 -30.9821 -10.1995 -45.8064 33.0001 1.6e-05 -1e-06 -30.0304 -0.108561 9.92815 25.1998 0.000123 0.000432 -3.34542 -11.6724 3.82813 
77.3336 89.6024 -143.738 76.7677 53.2785 12.9739 0.103456 1.85784 10.5485 14.1541 12.3801 177.903 43.5 -4.2e-05 1e-05 -7.77882 -12.7845 -3.89648 42.3722 1.9e-05 -7.10543e-15 80.0237 -5.96171 7.56389 17.3 -7.10543e-15 3e-06 21.4546 -1e-06 0.003093 0.103456 1.85782 -10.5485 -0.108431 -9.98086 171.838 43.5 -2.7e-05 4e-06 -22.6511 10.6861 2.20613 42.3723 0 1e-05 83.5558 10.6049 -7.42446 17.3 -6e-06 1.7e-05 21.4546 -1.9e-05 -0.003116 6.90197 -2.60373 -3e-06 7.3331 0.0397611 0.0748367 12.5881 1e-05 8e-06 4.65021 0.150196 0.167402 12.3432 -1.8e-05 -5e-06 4.32868 0.231285 0.168569 25.8329 2.3e-05 7e-06 5.26313 -7.31562 -5.77811 11.7666 -8e-06 -6e-06 -5.83913 -8.67569 3.84146 19.7459 -1.48035 6.0001 -174.507 6.33891 -75.4203 11.2841 1.8e-05 -2e-05 -10.7093 -5.53509 60.0095 33 -1.3e-05 1.9e-05 -35.9789 2.00771 -7.93999 25.2 3.2e-05 1.1e-05 -2.77653 34.5907 -4.5269 19.7461 -1.48036 -6.00008 -175.754 -1.71343 72.1071 11.2841 0 -1e-06 -31.0457 -10.0861 -45.885 33.0001 1.6e-05 -1e-06 -30.1211 -0.112884 9.96838 25.1998 0.000123 0.000432 -3.40715 -11.6363 3.82066 
77.1764 89.6161 -143.785 76.7723 53.2757 12.934 0.103456 1.85784 10.5485 14.0724 12.556 178.102 43.5 -4.2e-05 1e-05 -7.92854 -12.7631 -4.00012 42.3722 1.9e-05 -1.42109e-14 79.8546 -5.94361 7.52491 17.3 0 3e-06 21.4546 -1e-06 0.003093 0.103456 1.85782 -10.5485 0.178434 -10.2035 171.953 43.5 -2.7e-05 4e-06 -22.1588 10.6218 2.23146 42.3723 0 1e-05 83.467 10.5463 -7.20265 17.3 -6e-06 1.7e-05 21.4546 -1.9e-05 -0.003116 6.90197 -2.60373 -3e-06 7.28964 0.0372808 0.0836908 12.5881 1e-05 8e-06 4.56328 0.150299 0.185406 12.3432 -1.8e-05 -5e-06 4.24179 0.231254 0.186763 25.8329 2.3e-05 7e-06 5.31052 -7.32167 -5.76892 11.7666 -8e-06 -6e-06 -6.0151 -8.64717 3.82972 19.7459 -1.48035 6.0001 -174.443 6.37968 -75.4685 11.2841 1.8e-05 -2e-05 -10.7418 -5.55323 60.0816 33 -1.3e-05 1.9e-05 -36.0514 1.94349 -7.92389 25.2 3.2e-05 1.1e-05 -2.82395 34.4987 -4.44069 19.7461 -1.48036 -6.00008 -175.726 -1.75613 72.1792 11.2841 0 -1e-06 -31.1843 -10.1506 -45.9674 33.0001 1.6e-05 -1e-06 -30.3016 0.0226143 9.92576 25.1998 0.000123 0.000432 -3.41101 -11.6013 3.82139 
